<svg id="Layer_1" data-name="Layer 1" xmlns="http://www.w3.org/2000/svg" viewBox="0 0 1842.52 1842.52"><defs><style>.cls-1{fill:#d7d7d7;}.cls-2{fill:#9f1c2e;}</style></defs><circle class="cls-1" cx="894.62" cy="967.72" r="463.1"/><path class="cls-2" d="M927.41,750.38h-30a7.8,7.8,0,0,0-7.79,7.79v36a7.8,7.8,0,0,0,7.79,7.79h30a7.8,7.8,0,0,0,7.79-7.79v-36A7.8,7.8,0,0,0,927.41,750.38Zm-3.73,38.18-1.87,1.87H903l-1.87-1.87v-24.8l1.87-1.87h18.8l1.87,1.87Z"/><path class="cls-2" d="M987.05,750.38h-30a7.79,7.79,0,0,0-7.78,7.79v36a7.79,7.79,0,0,0,7.78,7.79h30a7.79,7.79,0,0,0,7.79-7.79v-36A7.79,7.79,0,0,0,987.05,750.38Zm-3.73,38.18-1.87,1.87h-18.8l-1.87-1.87v-24.8l1.87-1.87h18.8l1.87,1.87Z"/><path class="cls-2" d="M1046.69,750.38h-30a7.79,7.79,0,0,0-7.79,7.79v36a7.79,7.79,0,0,0,7.79,7.79h30a7.79,7.79,0,0,0,7.79-7.79v-36A7.79,7.79,0,0,0,1046.69,750.38ZM1043,788.56l-1.88,1.87h-18.8l-1.87-1.87v-24.8l1.87-1.87h18.8l1.88,1.87Z"/><path class="cls-2" d="M927.41,839.76h-30a7.8,7.8,0,0,0-7.79,7.79v36a7.8,7.8,0,0,0,7.79,7.79h30a7.8,7.8,0,0,0,7.79-7.79v-36A7.8,7.8,0,0,0,927.41,839.76ZM923.68,878l-1.87,1.87H903L901.14,878v-24.8l1.87-1.87h18.8l1.87,1.87Z"/><path class="cls-2" d="M987.05,839.76h-30a7.79,7.79,0,0,0-7.78,7.79v36a7.79,7.79,0,0,0,7.78,7.79h30a7.79,7.79,0,0,0,7.79-7.79v-36A7.79,7.79,0,0,0,987.05,839.76ZM983.32,878l-1.87,1.87h-18.8L960.78,878v-24.8l1.87-1.87h18.8l1.87,1.87Z"/><path class="cls-2" d="M1046.69,839.76h-30a7.79,7.79,0,0,0-7.79,7.79v36a7.79,7.79,0,0,0,7.79,7.79h30a7.79,7.79,0,0,0,7.79-7.79v-36A7.79,7.79,0,0,0,1046.69,839.76ZM1043,878l-1.88,1.87h-18.8l-1.87-1.87v-24.8l1.87-1.87h18.8l1.88,1.87Z"/><path class="cls-2" d="M927.41,929.15h-30a7.8,7.8,0,0,0-7.79,7.79v36a7.8,7.8,0,0,0,7.79,7.79h30a7.8,7.8,0,0,0,7.79-7.79v-36A7.8,7.8,0,0,0,927.41,929.15Zm-3.73,38.18-1.87,1.88H903l-1.87-1.88V942.54l1.87-1.88h18.8l1.87,1.88Z"/><path class="cls-2" d="M987.05,929.15h-30a7.79,7.79,0,0,0-7.78,7.79v36a7.79,7.79,0,0,0,7.78,7.79h30a7.79,7.79,0,0,0,7.79-7.79v-36A7.79,7.79,0,0,0,987.05,929.15Zm-3.73,38.18-1.87,1.88h-18.8l-1.87-1.88V942.54l1.87-1.88h18.8l1.87,1.88Z"/><path class="cls-2" d="M1046.69,929.15h-30a7.79,7.79,0,0,0-7.79,7.79v36a7.79,7.79,0,0,0,7.79,7.79h30a7.79,7.79,0,0,0,7.79-7.79v-36A7.79,7.79,0,0,0,1046.69,929.15ZM1043,967.33l-1.88,1.88h-18.8l-1.87-1.88V942.54l1.87-1.88h18.8l1.88,1.88Z"/><path class="cls-2" d="M1046.69,1018.53h-30a7.8,7.8,0,0,0-7.79,7.79v36a7.79,7.79,0,0,0,7.79,7.78h30a7.79,7.79,0,0,0,7.79-7.78v-36A7.8,7.8,0,0,0,1046.69,1018.53Zm-3.72,38.19-1.88,1.87h-18.8l-1.87-1.87v-24.8l1.87-1.87h18.8l1.88,1.87Z"/><path class="cls-2" d="M1146.58,1050.66a31.78,31.78,0,0,0-43.89-8.48l-21,14V728h1.53a10,10,0,0,0,10-10V698.4a10,10,0,0,0-10-10h-48.73a7.63,7.63,0,1,0,0,15.26H1078v9.08H863.76v-9.08h123a7.63,7.63,0,0,0,0-15.26H858.51a10,10,0,0,0-10,10V718a10,10,0,0,0,10,10h3.88v98H846.72V807.16a11.91,11.91,0,0,0-11.89-11.9H777.22a11.91,11.91,0,0,0-11.89,11.9V826h-11A12.37,12.37,0,0,0,742,838.35v175c-3.23-.2-6.46-.31-9.71-.31h-12v-4a26.87,26.87,0,0,0-26.84-26.84h-23.2a26.87,26.87,0,0,0-26.85,26.84v109a7.63,7.63,0,0,0,15.26,0v-109a11.59,11.59,0,0,1,11.58-11.58h23.2A11.6,11.6,0,0,1,705,1009.05v171.68a11.6,11.6,0,0,1-11.59,11.59H670.22a11.6,11.6,0,0,1-11.59-11.59v-15a7.63,7.63,0,0,0-15.26,0v15a26.87,26.87,0,0,0,26.85,26.85h23.2a26.87,26.87,0,0,0,26.84-26.85v-.43l105.66,40q.32.12.63.21a51,51,0,0,0,13.88,2,47.57,47.57,0,0,0,7.45-.59h0l156-22.48.12,0a76.79,76.79,0,0,0,36.37-16.29l.28-.24,100.8-90.66A31.79,31.79,0,0,0,1146.58,1050.66ZM877.65,728h188.8v338.45L1003,1108.92l-21.29-1.2-.54-5.45a46.47,46.47,0,0,0-2.63-11.48c-.44-1.21-.94-2.4-1.48-3.56a47,47,0,0,0-2.73-5,46.43,46.43,0,0,0-8.69-10.21h21.44a9.67,9.67,0,0,0,9.66-9.66v-36a9.67,9.67,0,0,0-9.66-9.66h-30a9.68,9.68,0,0,0-9.67,9.66v35.83a45.83,45.83,0,0,0-5.93-1.24l-.19,0-4.2-.49v-34.08a9.67,9.67,0,0,0-9.66-9.66h-30a9.67,9.67,0,0,0-9.66,9.66v28.4l-10.1-1.16V728Zm85,328.74v-24.8h18.8v24.8Zm-40.84-24.8v24.8H905.06l-2-.24v-24.56ZM780.59,810.53h50.87V826H780.59Zm-23.33,30.72H862.39v23.86H776.22a9,9,0,0,0-9,8.95v23a9,9,0,0,0,9,8.94h86.17v21.47H776.22a9,9,0,0,0-9,9v23a9,9,0,0,0,9,9h86.17v21.47H776.22a9,9,0,0,0-9,8.94v18.22c-1.3-.3-2.6-.58-3.9-.85l-1.85-.37-2.17-.4-2.09-.38Zm105.13,39.12v10.41H782.53V880.37Zm0,62.4v10.41H782.53V942.77Zm-79.86,72.81v-10.41h79.86v10.41Zm79.86,15.26v21l-2.35-.28a137.77,137.77,0,0,1-41.41-12.74c-1.15-.57-2.28-1.15-3.41-1.74q-2.76-1.46-5.48-3c-1.33-.78-2.67-1.53-4-2.27l-.88-.47-.8-.43Zm268.86,50-100.69,90.56a61.47,61.47,0,0,1-28.94,12.93l-156,22.48-.21,0a34.46,34.46,0,0,1-14.45-.92L720.26,1164v-135.7h12a137.8,137.8,0,0,1,16.51,1c1.11.13,2.21.28,3.32.44l.48.07q4.18.63,8.29,1.49l2.55.56,1.27.3c1.11.27,2.22.55,3.32.84l.59.16a137.73,137.73,0,0,1,25,9.53l.72.36c1,.51,2,1,3.05,1.58l.92.49c1.22.67,2.43,1.34,3.62,2l0,0q4.88,2.85,9.89,5.32A152.58,152.58,0,0,0,858,1066.66l.19,0,11,1.27,8.92,1,20.57,2.37,5.11.59h0l35.66,4.11A31.08,31.08,0,0,1,966,1103.79l.26,2.65-143-13.93a7.63,7.63,0,1,0-1.48,15.18l151.62,14.78a7.8,7.8,0,0,0,1,.13l30.35,1.7h.43l.45,0,.52,0c.22,0,.43-.08.65-.12s.34-.07.5-.12a5.35,5.35,0,0,0,.67-.24l.43-.16a7.88,7.88,0,0,0,1-.58l69-46.17h0l32.86-22a16.45,16.45,0,0,1,20.06,26Z"/><path class="cls-2" d="M840.43,1220.62a49.34,49.34,0,0,1-13.37-1.9l-106.13-40.17-2.54,1.75a25.09,25.09,0,0,1-25,25.41h-23.2a25,25,0,0,1-25-25v-15a5.76,5.76,0,0,1,11.51,0v15a13.48,13.48,0,0,0,13.47,13.46h23.19a13.49,13.49,0,0,0,13.47-13.46V1009.05a13.49,13.49,0,0,0-13.47-13.46H670.22a13.48,13.48,0,0,0-13.47,13.46v109a5.76,5.76,0,1,1-11.51,0v-109a25,25,0,0,1,25-25h23.2a25,25,0,0,1,25,25v4l1.87,1.87h12c3.21,0,6.41.11,9.59.31l2-1.86v-175a10.49,10.49,0,0,1,10.48-10.49h11L767.2,826V807.16a10,10,0,0,1,10-10h57.61a10,10,0,0,1,10,10V826l1.87,1.87h15.67l1.87-1.87V728l-1.87-1.87h-3.87a8.16,8.16,0,0,1-8.15-8.14V698.4a8.16,8.16,0,0,1,8.15-8.14H986.73a5.76,5.76,0,1,1,0,11.51h-123l-1.87,1.87v9.08l1.87,1.88H1078l1.88-1.88v-9.08l-1.88-1.87h-43.48a5.76,5.76,0,0,1,0-11.51h48.72a8.16,8.16,0,0,1,8.15,8.14V718a8.16,8.16,0,0,1-8.15,8.14h-1.52l-1.87,1.87v328.23l2.91,1.56,21-14a29.84,29.84,0,0,1,36.44,47.08l-100.8,90.66a75.17,75.17,0,0,1-35.7,16.08l-156,22.5A46.07,46.07,0,0,1,840.43,1220.62Zm-122-192.34V1164l1.21,1.75,110.74,41.93a37.65,37.65,0,0,0,10.1,1.44,34.55,34.55,0,0,0,5.3-.41l156.15-22.51a63.46,63.46,0,0,0,29.84-13.33l100.77-90.63a18.3,18.3,0,0,0-12.16-32,18.19,18.19,0,0,0-10.19,3.1l-101.86,68.17-1.1.55-1.33.35-31.45-1.64-152.51-14.9a5.68,5.68,0,0,1-3.89-2.07,5.76,5.76,0,0,1,4.44-9.42l143.59,14,2-2-.26-2.66a33,33,0,0,0-28.14-29.41l-81.28-9.37a150.74,150.74,0,0,1-45.65-14q-5-2.43-9.77-5.25c-1.27-.73-2.49-1.42-3.72-2.09l-4-2.11a142.49,142.49,0,0,0-26.12-10l-5.25-1.32-2.59-.57c-2.77-.58-5.57-1.09-8.4-1.51l-3.85-.51a139.36,139.36,0,0,0-16.73-1h-12Zm246,45.11a44.6,44.6,0,0,1,11,14.63c.51,1.11,1,2.25,1.41,3.41a44.2,44.2,0,0,1,2.53,11l.54,5.45,1.76,1.68,21.29,1.2,1.14-.32,63.48-42.49.84-1.55V728l-1.88-1.87H877.65L875.78,728v325.58l1.66,1.87,10.1,1.16,2.08-1.87v-28.4a7.81,7.81,0,0,1,7.79-7.79h30a7.81,7.81,0,0,1,7.79,7.79v34.08l1.66,1.86,4.19.49a45.44,45.44,0,0,1,5.85,1.2l2.37-1.81v-35.82a7.8,7.8,0,0,1,7.78-7.79h30a7.8,7.8,0,0,1,7.79,7.79v36a7.8,7.8,0,0,1-7.79,7.79H965.61Zm-3.59-41.47v24.8l1.87,1.87h18.8l1.87-1.87v-24.8l-1.87-1.87h-18.8Zm-59.64,0v24.56l1.66,1.86,2.05.24h17l1.87-1.87v-24.8l-1.87-1.87H903Zm-98,.57s4.32,2.36,5.63,3.13c1.84,1.08,3.69,2.1,5.56,3.08l3.45,1.77a140.67,140.67,0,0,0,42,12.92l2.4.28,2.08-1.87v-21l-1.87-1.88H804ZM755.39,841.25v173.82l1.55,1.85,6,1.13,3.85.84,2.3-1.82V998.85a7.08,7.08,0,0,1,7.07-7.07h86.18l1.87-1.88V968.44l-1.87-1.87H776.21a7.08,7.08,0,0,1-7.07-7.08v-23a7.08,7.08,0,0,1,7.07-7.08h86.18l1.87-1.87V906l-1.87-1.87H776.21a7.08,7.08,0,0,1-7.07-7.07v-23a7.08,7.08,0,0,1,7.07-7.07h86.18l1.87-1.88V841.25l-1.87-1.87H757.26Zm25.26,163.92v10.4l1.88,1.88h79.86l1.87-1.88v-10.4l-1.87-1.88H782.53Zm0-62.4v10.41l1.88,1.87h79.86l1.87-1.87V942.77l-1.87-1.87H782.53Zm0-62.4v10.41l1.88,1.88h79.86l1.87-1.88V880.37l-1.87-1.87H782.53Zm-1.94-69.85V826l1.88,1.87h50.87l1.88-1.87V810.52l-1.88-1.87H780.59Z"/></svg>