<svg id="Layer_1" data-name="Layer 1" xmlns="http://www.w3.org/2000/svg" viewBox="0 0 1842.52 1842.52"><defs><style>.cls-1{fill:#d7d7d7;}.cls-2{fill:#9f1c2e;}</style></defs><circle class="cls-1" cx="990.19" cy="967.72" r="463.1"/><path class="cls-2" d="M1292.39,796.35a6.93,6.93,0,0,0-7.2.69L1117.5,925.27a17.22,17.22,0,0,0-4.27,22.4l.12,1.65-.95,2.35-1.25,1.1-27.08,7.28-1.64-.22-38.62-16.44a6.87,6.87,0,0,0-1.39-.43,149.63,149.63,0,0,0-27.77-2.9c-15.34,0-27.33,3.22-36.18,9.89l-1.58.43H871.47l-1.56-.83-1.47-2.21-.17-1.76a17.28,17.28,0,0,0-5.38-20.3L695.19,797.05a6.89,6.89,0,0,0-4.16-1.41,7,7,0,0,0-3,.71,6.8,6.8,0,0,0-3.81,6.14v247.58a6.83,6.83,0,0,0,3.46,5.94l63.85,36.49a17.12,17.12,0,0,0,20.22-2.43l1.2-.5,2.09-.08,1.24.4,12,9.56.69,1.25.26,2.23-.39,1.37A27.23,27.23,0,0,0,808,1148.24a21.89,21.89,0,0,0,2.25.1,29.92,29.92,0,0,0,4.22-.36l1.44.37,1.85,1.43.71,1.31a32.34,32.34,0,0,0,7.53,18.08,32.7,32.7,0,0,0,22.24,11.42c.55.05,1.1.08,2.32.08h.76l1.33.5,1.65,1.53.59,1.29a27,27,0,0,0,27.23,25.84,26.79,26.79,0,0,0,9.36-1.7l1.51.09,2.09,1.07,1,1.16a27.09,27.09,0,0,0,23.88,19.64c.79.07,1.56.1,2.49.1a26.82,26.82,0,0,0,17.14-6.27L956.82,1211l3,.25,38.09,25.45a32.38,32.38,0,0,0,18,5.42h.07a34,34,0,0,0,6.49-.64,32.29,32.29,0,0,0,26-28.66l.83-1.38,2-1.37,1.59-.23a32.09,32.09,0,0,0,41.37-28.25l.84-1.42,2.09-1.38,1.62-.22a32.45,32.45,0,0,0,42.17-36.18l.35-1.44,1.39-1.85,1.28-.74a32,32,0,0,0,23-13.92c5.21-7.85,6.78-17.57,4.32-27.62l.89-2.4,20.34-20.33,1.51-.54,2.46.25,1.37.82,8.3,12.45a17.2,17.2,0,0,0,22.8,5.39l63.87-36.48a6.86,6.86,0,0,0,3.44-5.94V802.49A6.78,6.78,0,0,0,1292.39,796.35ZM723.83,1058.6l-2.13.52-1.37-.19-21.39-12.52-1.06-2.33V823.36l1-1.68,2.57-1.26,2,.19,115.17,88.07.71,1.17.37,2.14-.28,1.33L725,1057.81Zm39.06,20.91-1.13.79-2.12.5-1.36-.2-20-11.42-.89-1.2-.54-2.25.26-1.46L830.05,922.1l2.59-.54,21.83,14.52.8,1.26.36,2.14-.28,1.35ZM819,1131.4a13.15,13.15,0,0,1-8.66,3.25l-1.26-.05a13.57,13.57,0,0,1-7.87-23.67l25.66-19.84a13.45,13.45,0,0,1,8.73-3.22l1.17,0a13.57,13.57,0,0,1,11.7,9.1,13.72,13.72,0,0,1-3.83,14.57ZM851,1167l-1.63-.07a18.94,18.94,0,0,1-10.91-33.13l32.37-25a18.93,18.93,0,0,1,25,28.45l-32.62,25.28A18.83,18.83,0,0,1,851,1167Zm39.8,25.87c-2.52,2.13-5.62,3.18-9.85,3.18h0a13.57,13.57,0,0,1-7.86-23.69l38.61-30.13a13.42,13.42,0,0,1,8.75-3.23l1.14,0a13.58,13.58,0,0,1,7.87,23.68Zm65.83.55L931,1213.23a13.09,13.09,0,0,1-8.64,3.27l-1.3-.07a13.56,13.56,0,0,1-11.67-9.07c-1.83-5.24-.28-10.8,4.27-14.95l25.21-19.49a13.56,13.56,0,0,1,17.75,20.51Zm198.87-76.53a19,19,0,0,1-15.8,8.38,19.36,19.36,0,0,1-10.39-3.08l-67.76-46.84a6.78,6.78,0,0,0-3.9-1.22,6.71,6.71,0,0,0-2.93.65,6.85,6.85,0,0,0-1,11.84L1119.3,1132a18.89,18.89,0,0,1-20.88,31.48l-67.8-46.79a6.85,6.85,0,0,0-7.78,11.28l49.55,34.2a19.89,19.89,0,0,1,5.36,26.91,18.87,18.87,0,0,1-26.11,5.4l-36.85-26.16a6.87,6.87,0,0,0-4-1.26,6.76,6.76,0,0,0-2.84.62,6.85,6.85,0,0,0-1.11,11.82l19.3,13.7a34.3,34.3,0,0,1,2.82,2.57,19,19,0,0,1-23.53,29.59l-34-22.7-.79-1.17-.46-2.19.26-1.4a27.25,27.25,0,0,0,1.72-26.38,26.88,26.88,0,0,0-21.57-15.26l-1.21-.62L948,1154l-.47-1.26a27,27,0,0,0-24.72-27.29l-1.63-.05c-.64,0-1.29,0-1.94.08l-1.39-.48-1.72-1.54-.62-1.35a32.38,32.38,0,0,0-48.83-27l-1.62.14-2.32-.9-1.12-1.18a27.24,27.24,0,0,0-43.32-12.69l-14.1,10.89-1.16.4-2,0-1.16-.41-16.06-12.84-.68-1.18-.33-2.13.29-1.32L856,965l2.22-.94h90.54l1.75,1.22,1.06,2.78-.52,2.07a26.37,26.37,0,0,0-8.5,24.41,25.88,25.88,0,0,0,21.58,21.2,98.27,98.27,0,0,0,13.7,1,101.87,101.87,0,0,0,41.36-8.93l2.39.39,26.16,16.64a20.6,20.6,0,0,0,2,.93l100.66,64.83a20.46,20.46,0,0,1,6.17,6.8A19.06,19.06,0,0,1,1155.49,1116.9Zm30.74-56.52-.54,1.15-20.06,20-1.31.55h-2.24l-1.32-.52a34.49,34.49,0,0,0-2.93-2.55l-101.67-65.51c-.35-.17-.72-.3-1.8-.75L1024,993.51a6.89,6.89,0,0,0-7.21-.1,85.58,85.58,0,0,1-39.23,9.57,83.94,83.94,0,0,1-11-.72A12.15,12.15,0,0,1,956,992.2a12.72,12.72,0,0,1,6.64-13.7,115.46,115.46,0,0,0,21-14.07,5.85,5.85,0,0,0,1.25-1.71,12.69,12.69,0,0,1,1.54-1.57c2.59-2.21,10.53-7.37,28.4-7.37a130,130,0,0,1,24.63,2.66l40.9,17.41a6.7,6.7,0,0,0,4.47.3l37.6-9.89,2.65,1.37,61,91.52.31,1.22ZM1243,1068l-.9,1.2-20,11.42-1.36.2-2.12-.5-1.14-.79L1125,940.84l-.29-1.34.36-2.15.71-1.18,19.52-14.93,1.45-.36,2.3.4,1.25.82,93,142.17.25,1.46Zm39.24-23-1.49,2.07-20.71,11.83-1.37.19-2.12-.52-1.13-.79L1161,913.32l-.28-1.33.36-2.14.71-1.17,115.17-88.07,2-.2,2.56,1.27,1,1.68Z"/></svg>