<svg id="Layer_1" data-name="Layer 1" xmlns="http://www.w3.org/2000/svg" viewBox="0 0 1842.52 1842.52"><defs><style>.cls-1{fill:#d7d7d7;}.cls-2{fill:#9f1c2e;}</style></defs><circle class="cls-1" cx="894.62" cy="921.26" r="463.1"/><path class="cls-2" d="M694.39,1167.33a7.14,7.14,0,0,1-6.7-4.71l-38.65-106a7.13,7.13,0,0,1,4.28-9.13l53-19.34.56-1.21-2.76-7.57a7.16,7.16,0,0,1,.25-5.45,7.08,7.08,0,0,1,4-3.68l75.78-27.57a6.9,6.9,0,0,1,2.42-.43,7.15,7.15,0,0,1,6.7,4.7l9,24.69,1.34.5L857,982.43a7.11,7.11,0,0,1,3.46-.9H981.37a31.33,31.33,0,0,1,22.12,9.18,29.49,29.49,0,0,1,6.15,9.27l1.34.45,68.8-39.69a31.31,31.31,0,0,1,47,27.11A31,31,0,0,1,1111.1,1015L936.56,1115.75a7.12,7.12,0,0,1-3.56,1H841.9L841,1118l2,5.34a7.12,7.12,0,0,1-4.27,9.13L762.94,1160a7.28,7.28,0,0,1-2.44.42,7.13,7.13,0,0,1-6.69-4.7l-2.76-7.57-1.2-.56-53,19.3A7,7,0,0,1,694.39,1167.33Zm-28.55-109.26-.57,1.2,33.06,90.94,1.2.57L745,1134.19l.56-1.2-33.09-90.91-1.2-.56Zm55-37.24-.56,1.2,44.1,121.28,1.2.56,60.62-22.12.56-1.2L782.69,999.32l-1.2-.56ZM862.08,995.9l-53.77,29.91-.42,1.14,27.26,74.89.88.62h94.81L1104,1002.64a16.9,16.9,0,0,0,8.5-14.79,17.07,17.07,0,0,0-25.59-14.77l-74.12,42.78c-2.31,16.38-15.61,28.24-31.4,28.29H893.63V1029.9h87.74a17.08,17.08,0,0,0,17.06-17.06,14.49,14.49,0,0,0-1-5.51,16.36,16.36,0,0,0-4-6.55,16.86,16.86,0,0,0-12-5H862.54Z"/><path class="cls-2" d="M1045.86,739.68H804a23.28,23.28,0,0,0-23.25,23.25V971.6H795V762.93a9,9,0,0,1,9-9H989.43l.94.94V811.3a7.09,7.09,0,0,0,5.06,6.82,7.16,7.16,0,0,0,8-2.86l9.41-14.16h1.57l9.41,14.13a7.12,7.12,0,0,0,13-3.93V754.87l.94-.94h8.06a9,9,0,0,1,9,9V955.47h14.25V762.93A23.28,23.28,0,0,0,1045.86,739.68Zm-23.24,45-1.73.52-1.32-2a7.43,7.43,0,0,0-11.88,0l-1.36,2-1.72-.52V754.87l.94-.94h16.13l.94.94Z"/><path class="cls-2" d="M1022.57,729.75h14.27a23.27,23.27,0,0,0-23.22-22.32H771.76a23.27,23.27,0,0,0-23.24,23.25V971.6h14.24V730.68a9,9,0,0,1,9-9h241.86A9,9,0,0,1,1022.57,729.75Z"/><path class="cls-2" d="M990.32,697.5h14.27a23.27,23.27,0,0,0-23.22-22.31H758.49a42.22,42.22,0,0,0-42.22,42.22V971.6h14.25V731.66a42.22,42.22,0,0,1,42.22-42.22H981.37A9,9,0,0,1,990.32,697.5Z"/><rect class="cls-2" x="829.13" y="779.99" width="46.49" height="14.25"/><rect class="cls-2" x="829.13" y="812.24" width="46.49" height="14.25"/><path class="cls-2" d="M933,804.17a7.13,7.13,0,0,0-7.12,7.13v64.49a7.13,7.13,0,0,0,7.12,7.13h64.49a7.13,7.13,0,0,0,7.12-7.13A71.81,71.81,0,0,0,933,804.17Zm55.86,64.5h-47.8l-.94-.94v-47.8l1.07-.92a57.84,57.84,0,0,1,48.59,48.59Z"/><path class="cls-2" d="M973.31,892.85H916.87l-.94-.93V835.48a7.13,7.13,0,0,0-7.12-7.12A71.62,71.62,0,1,0,980.43,900,7.14,7.14,0,0,0,973.31,892.85Zm-64.45,64.5c-.93,0-1.85,0-2.79-.07a57.37,57.37,0,0,1-5.45-114.09l1.07.93V900a7.13,7.13,0,0,0,7.12,7.12h55.86l.93,1.08A57.65,57.65,0,0,1,908.86,957.35Z"/></svg>