<svg id="Layer_1" data-name="Layer 1" xmlns="http://www.w3.org/2000/svg" viewBox="0 0 1842.52 1842.52"><defs><style>.cls-1{fill:#d7d7d7;}.cls-2{fill:#9f1c2e;}</style></defs><circle class="cls-1" cx="898.54" cy="967.72" r="463.1"/><path class="cls-2" d="M858.92,886.67a9.15,9.15,0,0,1-9.14-9.13v-7.62l1.51-1.51h7.63a9.14,9.14,0,0,1,9,7.62h12.3A21.39,21.39,0,0,0,866,857.5l-1-1.43V840.93H852.8v13.74l-1.51,1.51H837.56v21.36a21.38,21.38,0,0,0,21.36,21.36,9.15,9.15,0,0,1,9.13,9.13v7.62l-1.51,1.51h-7.62a9.15,9.15,0,0,1-9-7.62h-12.3a21.41,21.41,0,0,0,14.19,18.54l1,1.42v15.14H865V930.9l1.51-1.51h13.73V908A21.37,21.37,0,0,0,858.92,886.67Z"/><path class="cls-2" d="M910.77,892.79a6.12,6.12,0,1,0-6.12,6.11A6.13,6.13,0,0,0,910.77,892.79Z"/><path class="cls-2" d="M813.18,886.67a6.12,6.12,0,1,0,6.11,6.12A6.13,6.13,0,0,0,813.18,886.67Z"/><path class="cls-2" d="M858.92,795.2a97.59,97.59,0,1,0,97.58,97.59A97.69,97.69,0,0,0,858.92,795.2Zm0,182.95a85.37,85.37,0,1,1,85.36-85.36A85.46,85.46,0,0,1,858.92,978.15Z"/><path class="cls-2" d="M745.9,832.64a127.21,127.21,0,0,0,4.48,127.82l-.21,1.87-19.78,19.83h-2.14l-6.55-6.55-86.32,86.32a38.46,38.46,0,0,0,54.38,54.39l53.74-53.75,2.58,1.07v140.17h347.64V734.22H746.08Zm-2.84,60.15a115.86,115.86,0,1,1,115.86,115.85A116,116,0,0,1,743.06,892.79Zm-4,98,17.91-18,2.25.12a128.6,128.6,0,0,0,19.51,19.52l.12,2.24-17.94,17.93h-2.13L739,992.94Zm18.7,40.25-76.61,76.62a26.23,26.23,0,0,1-37.1-37.09L720.64,994h2.13l35,35ZM758.31,748l1.51-1.51H1080l1.51,1.51v442.13l-1.51,1.51H759.82l-1.51-1.51V1048.4l.44-1.07L776.09,1030l-6.56-6.56v-2.13l19.79-19.8,1.87-.21A128,128,0,1,0,761,810.42l-2.66-1Z"/><path class="cls-2" d="M1020.51,1159.59l-1.51,1.51h-15.25l-1.51-1.51V993.39H959.52v166.2L958,1161.1H942.77l-1.51-1.51v-135.7H898.54v135.7L897,1161.1H881.78l-1.51-1.51V1054.38H837.56v105.21l-1.51,1.51H820.8l-1.51-1.51v-74.72H776.57v88.45h286.66V962.9h-42.72Zm-213.45,0-1.51,1.51H790.31l-1.51-1.51v-61l1.51-1.52h15.24l1.51,1.52Zm61,0-1.51,1.51H851.29l-1.51-1.51v-91.48l1.51-1.51h15.25l1.51,1.51Zm61,0-1.51,1.51H912.28l-1.51-1.51v-122l1.51-1.51h15.24l1.51,1.51Zm61,0-1.51,1.51H973.26l-1.51-1.51V1007.13l1.51-1.51h15.25l1.51,1.51Zm42.71-182.95,1.51-1.51h15.25l1.51,1.51v182.95l-1.51,1.51h-15.25l-1.51-1.51Z"/><rect class="cls-2" x="944.28" y="764.71" width="12.23" height="12.23"/><rect class="cls-2" x="974.77" y="764.71" width="88.46" height="12.23"/><rect class="cls-2" x="1005.26" y="795.2" width="57.96" height="12.23"/><rect class="cls-2" x="1005.26" y="825.69" width="57.96" height="12.23"/><rect class="cls-2" x="1005.26" y="856.18" width="57.96" height="12.23"/><rect class="cls-2" x="1005.26" y="886.67" width="57.96" height="12.23"/><rect class="cls-2" x="1005.26" y="917.16" width="57.96" height="12.23"/></svg>