<svg id="Layer_1" data-name="Layer 1" xmlns="http://www.w3.org/2000/svg" viewBox="0 0 1842.52 1842.52"><path d="M976.14,854.92H867.48a12,12,0,0,0-12,12V975.59a12,12,0,0,0,12,12H976.14a12,12,0,0,0,12-12V866.93a12,12,0,0,0-12-12ZM896.53,969.48A3.49,3.49,0,0,1,893,973H878.17a3.49,3.49,0,0,1-3.49-3.49V907.16a3.49,3.49,0,0,1,3.49-3.49H893a3.49,3.49,0,0,1,3.49,3.49ZM885.6,897.79a14.12,14.12,0,1,1,14.13-14.12,14.12,14.12,0,0,1-14.13,14.12Zm88.62,72A3.21,3.21,0,0,1,971,973h-16a3.2,3.2,0,0,1-3.21-3.21V940.53c0-4.36,1.28-19.11-11.4-19.11-9.83,0-11.83,10.1-12.23,14.63v33.71A3.2,3.2,0,0,1,925,973H909.58a3.21,3.21,0,0,1-3.21-3.21V906.88a3.21,3.21,0,0,1,3.21-3.21H925a3.21,3.21,0,0,1,3.21,3.21v5.44c3.65-5.47,9.07-9.7,20.6-9.7,25.55,0,25.4,23.87,25.4,37Zm0,0"/></svg>